# AST/ASF file generated using VICON BodyLanguage
# -----------------------------------------------
:version 1.10
:name VICON
:units
  mass 1.0
  length 0.45
  angle deg
:documentation
   .ast/.asf automatically generated from VICON data using
   VICON BodyBuilder and BodyLanguage model FoxedUp or BRILLIANT.MOD
:root
   order TX TY TZ RX RY RZ
   axis XYZ
   position 0 0 0  
   orientation 0 0 0 
:bonedata
  begin
     id 1 
     name lhipjoint
     direction 0.521689 -0.742065 0.420928 
     length 2.47002 
     axis 0 0 0  XYZ
  end
  begin
     id 2 
     name lfemur
     direction 0.34202 -0.939693 0  
     length 7.24654  
     axis 0 0 20  XYZ
    dof rx ry rz
    limits (-160.0 20.0)
           (-70.0 70.0)
           (-60.0 70.0)
  end
  begin
     id 3 
     name ltibia
     direction 0.34202 -0.939693 0   
     length 8.04849   
     axis 0 0 20   XYZ
    dof rx
    limits (-10.0 170.0)
  end
  begin
     id 4 
     name lfoot
     direction 0.0745411 -0.2048 0.975961   
     length 1.72367   
     axis -90 7.62852e-016 20   XYZ
    dof rx rz
    limits (-45.0 90.0)
           (-70.0 20.0)
  end
  begin
     id 5 
     name ltoes
     direction 1.53556e-011 -4.21901e-011 1   
     length 0.87311   
     axis -90 7.62852e-016 20   XYZ
    dof rx
    limits (-90.0 20.0)
  end
  begin
     id 6 
     name rhipjoint
     direction -0.52849 -0.738415 0.418857   
     length 2.48223  
     axis 0 0 0  XYZ 
  end
  begin
     id 7 
     name rfemur
     direction -0.34202 -0.939693 0   
     length 7.15571   
     axis 0 0 -20   XYZ
    dof rx ry rz
    limits (-160.0 20.0)
           (-70.0 70.0)
           (-70.0 60.0)
  end
  begin
     id 8 
     name rtibia
     direction -0.34202 -0.939693 0   
     length 7.81659   
     axis 0 0 -20   XYZ
    dof rx
    limits (-10.0 170.0)
 end
 begin
     id 9 
     name rfoot
     direction -0.0917348 -0.252039 0.963359   
     length 1.84382  
     axis -90 -7.62852e-016 -20   XYZ
    dof rx rz
    limits (-45.0 90.0)
           (-20.0 70.0)
  end
  begin
     id 10 
     name rtoes
     direction -1.53551e-011 -4.21879e-011 1   
     length 0.927771   
     axis -90 -7.62852e-016 -20   XYZ
    dof rx
    limits (-90.0 20.0)
  end
  begin
     id 11 
     name lowerback
     direction 0.00583058 0.999822 0.0179296   
     length 2.1429   
     axis 0 0 0   XYZ
    dof rx ry rz
    limits (-20.0 45.0)
           (-30.0 30.0)
           (-30.0 30.0)
  end
  begin
     id 12 
     name upperback
     direction -0.0137999 0.999752 -0.0175071   
     length 2.14252   
     axis 0 0 0   XYZ
    dof rx ry rz
    limits (-20.0 45.0)
           (-30.0 30.0)
           (-30.0 30.0)
  end
  begin
     id 13 
     name thorax
     direction -0.0158036 0.99955 -0.0254909   
     length 2.1383   
     axis 0 0 0   XYZ
    dof rx ry rz
    limits (-20.0 45.0)
           (-30.0 30.0)
           (-30.0 30.0)
  end
  begin
     id 14 
     name lowerneck
     direction -0.0101179 0.999403 -0.0330262   
     length 1.65808   
     axis 0 0 0   XYZ
    dof rx ry rz
    limits (-20.0 45.0)
           (-30.0 30.0)
           (-30.0 30.0)
  end
  begin
     id 15 
     name upperneck
     direction 0.0497734 0.995978 -0.074501   
     length 1.5897   
     axis 0 0 0   XYZ
    dof rx ry rz
    limits (-20.0 45.0)
           (-30.0 30.0)
           (-30.0 30.0)
  end
  begin
     id 16
     name head
     direction 0.0189524 0.999519 -0.0245438  
     length 1.74024  
     axis 0 0 0   XYZ
    dof rx ry rz
    limits (-20.0 45.0)
           (-30.0 30.0)
           (-30.0 30.0)
  end
  begin
     id 17 
     name lclavicle
     direction 0.945604 0.324422 0.0241537  
     length 3.59089  
     axis 0 0 0   XYZ
    dof ry rz
    limits (-20.0 10.0)
           (0.0 20.0)
  end
  begin
     id 18 
     name lhumerus
     direction 1 -4.48964e-011 -2.63524e-027   
     length 5.2391   
     axis 180 -30 -90   XYZ
    dof rx ry rz
    limits (-60.0 90.0)
           (-90.0 90.0)
           (-90.0 90.0)
  end
  begin
     id 19
     name lradius
     direction 1 -4.48969e-011 3.86978e-028   
     length 3.31467   
     axis 180 -30 -90   XYZ
    dof rx
    limits (-10.0 170.0)
  end
  begin
     id 20
     name lwrist
     direction 1 -4.48963e-011 7.20928e-028   
     length 1.65734   
     axis -5.52449e-016 90 90   XYZ
    dof ry
    limits (-180.0 0.0)
 end
  begin
     id 21 
     name lhand
     direction 1 -4.48964e-011 1.44186e-027   
     length 0.9659   
     axis -9.20027e-016 90 90   XYZ
    dof rx rz
    limits (-90.0 90.0)
           (-45.0 45.0)
  end
  begin
     id 22 
     name lfingers
     direction 1 -4.48965e-011 2.88371e-027   
     length 0.778733   
     axis -1.84005e-015 90 90   XYZ
    dof rx
    limits (0.0 90.0)
  end
  begin
     id 23
     name lthumb
     direction 0.707107 -6.34931e-011 0.707107   
     length 1.11811   
     axis -90 45 2.85299e-015   XYZ
    dof rx rz
    limits (-45.0 45.0)
           (-45.0 45.0)
  end
  begin
     id 24 
     name rclavicle
     direction -0.923762 0.370785 0.0958234   
     length 3.54196  
     axis 0 0 0   XYZ 
    dof ry rz
    limits (-10.0 20.0)
           (-20.0 0.0)
  end
  begin
     id 25 
     name rhumerus
     direction -1 -4.48966e-011 1.18702e-017  
     length 5.30252   
     axis 180 30 90   XYZ
    dof rx ry rz
    limits (-90.0 60.0)
           (-90.0 90.0)
           (-90.0 90.0)
  end
  begin
     id 26 
     name rradius
     direction -1 -4.48966e-011 4.46736e-027   
     length 3.67875   
     axis 180 30 90   XYZ
    dof rx
    limits (-10.0 170.0)
  end
  begin
     id 27 
     name rwrist
     direction -1 -4.48966e-011 7.20928e-028   
     length 1.83937   
     axis -5.52449e-016 -90 -90   XYZ
    dof ry
    limits (-180.0 0.0)
  end
  begin
     id 28
     name rhand
     direction -1 -4.48973e-011 1.44186e-027   
     length 0.594811   
     axis -9.20027e-016 -90 -90   XYZ
    dof rx rz
    limits (-90.0 90.0)
           (-45.0 45.0)
  end
  begin
     id 29
     name rfingers
     direction -1 -4.48963e-011 2.88371e-027   
     length 0.479552   
     axis -1.84005e-015 -90 -90   XYZ
    dof rx
    limits (0.0 90.0)
  end
  begin
     id 30
     name rthumb
     direction -0.707107 -6.34932e-011 0.707107   
     length 0.688544   
     axis -90 -45 -2.85299e-015   XYZ
    dof rx rz
    limits (-45.0 45.0)
           (-45.0 45.0)
  end
:hierarchy
  begin
    root lhipjoint rhipjoint lowerback
    lhipjoint lfemur
    lfemur ltibia
    ltibia lfoot
    lfoot ltoes
    rhipjoint rfemur
    rfemur rtibia
    rtibia rfoot
    rfoot rtoes
    lowerback upperback
    upperback thorax
    thorax lowerneck lclavicle rclavicle
    lowerneck upperneck
    upperneck head
    lclavicle lhumerus
    lhumerus lradius
    lradius lwrist
    lwrist lhand lthumb
    lhand lfingers
    rclavicle rhumerus
    rhumerus rradius
    rradius rwrist
    rwrist rhand rthumb
    rhand rfingers
  end

#!OML:ASF E:\acrobat2\Project_11_07_03\Capture day 1\Session 1\Acrobat.ASF
:FULLY-SPECIFIED
:DEGREES
47
root 7.79154 17.857 -32.3503 1.98818 -11.4145 -4.54866
lowerback -6.86873 1.56648 6.11567
upperback 0.337728 1.57732 0.147144
thorax 4.37421 0.917779 -3.11405
lowerneck 1.86366 -2.56426 -1.67014
upperneck 4.84867 -3.61558 4.57428
head 1.31714 -1.78187 1.69047
rclavicle -1.59463e-014 -4.37326e-015
rhumerus -40.3332 -5.05093 -81.6398
rradius 27.4977
rwrist 0.982878
rhand -5.62907 -36.5041
rfingers 7.12502
rthumb 20.1889 -65.475
lclavicle -1.59463e-014 -4.37326e-015
lhumerus -32.2757 -5.9827 86.3372
lradius 20.0288
lwrist 7.30618
lhand -9.08545 -11.5406
lfingers 7.12502
lthumb 16.8642 17.7471
rfemur 6.18285 1.57236 28.0168
rtibia 4.23617
rfoot -23.1386 -19.5545
rtoes 8.20172
lfemur -10.7723 -1.35408 -4.98476
ltibia 1.18868
lfoot -5.40842 11.6264
ltoes 38.343
48
root 7.7913 17.8572 -32.3534 1.98654 -11.3901 -4.57626
lowerback -6.84206 1.55579 6.15689
upperback 0.323984 1.56209 0.147342
thorax 4.34447 0.910044 -3.13944
lowerneck 1.95925 -2.56528 -1.69079
upperneck 4.80236 -3.61784 4.62542
head 1.28789 -1.78447 1.71177
rclavicle -6.9761e-015 -1.19271e-015
rhumerus -40.368 -5.07911 -81.6536
rradius 27.5498
rwrist 0.950555
rhand -5.63609 -36.5515
rfingers 7.12502
rthumb 20.1822 -65.5231
lclavicle -6.9761e-015 -1.19271e-015
lhumerus -32.2507 -6.15031 86.4153
lradius 20.0577
lwrist 7.33789
lhand -9.09064 -11.5487
lfingers 7.12502
lthumb 16.8592 17.7395
rfemur 6.16194 1.62118 28.0707
rtibia 4.26288
rfoot -23.1848 -19.6155
rtoes 8.19236
lfemur -10.8099 -1.29915 -4.94962
ltibia 1.23681
lfoot -5.35538 11.5726
ltoes 38.3306
49
root 7.79123 17.8575 -32.3563 1.98164 -11.3645 -4.59397
lowerback -6.82904 1.54751 6.20056
upperback 0.339278 1.54841 0.136125
thorax 4.35337 0.905001 -3.17723
lowerneck 1.97085 -2.57402 -1.69945
upperneck 4.77261 -3.63072 4.68165
head 1.27854 -1.79088 1.73154
rclavicle -1.16724e-014 -5.1684e-015
rhumerus -40.3554 -5.14697 -81.6672
rradius 27.6064
rwrist 0.938421
rhand -5.62087 -36.6181
rfingers 7.12502
rthumb 20.1968 -65.5882
lclavicle -1.16724e-014 -5.1684e-015
lhumerus -32.1647 -6.35697 86.4904
lradius 20.0788
lwrist 7.39994
lhand -9.08377 -11.5225
lfingers 7.12502
lthumb 16.8658 17.7651
rfemur 6.13594 1.65869 28.1106
rtibia 4.30517
rfoot -23.2285 -19.6721
rtoes 8.15905
lfemur -10.8451 -1.24036 -4.93107
ltibia 1.28779
lfoot -5.27991 11.5114
ltoes 38.1792
50
root 7.79142 17.8578 -32.3584 1.97073 -11.3458 -4.58767
lowerback -6.82193 1.54463 6.23836
upperback 0.358622 1.54268 0.1058
thorax 4.37104 0.904361 -3.23063
lowerneck 1.96724 -2.58544 -1.68279
upperneck 4.74522 -3.64669 4.73106
head 1.27192 -1.79827 1.74445
rclavicle -1.64743e-014 1.05356e-014
rhumerus -40.3428 -5.26555 -81.6745
rradius 27.6599
rwrist 0.964376
rhand -5.59001 -36.6626
rfingers 7.12502
rthumb 20.2264 -65.6296
lclavicle -1.64743e-014 1.05356e-014
lhumerus -32.0757 -6.61705 86.5652
lradius 20.1016
lwrist 7.47785
lhand -9.08172 -11.4746
lfingers 7.12502
lthumb 16.8678 17.8128
rfemur 6.11083 1.68248 28.1163
rtibia 4.35757
rfoot -23.2752 -19.7071
rtoes 8.12879
lfemur -10.8707 -1.18311 -4.94616
ltibia 1.33662
lfoot -5.20025 11.4462
ltoes 37.9266
51
root 7.79183 17.8582 -32.3595 1.95669 -11.3405 -4.56101
lowerback -6.81776 1.53817 6.2584
upperback 0.387042 1.53328 0.0720265
thorax 4.39906 0.902069 -3.2779
lowerneck 1.89518 -2.59376 -1.64835
upperneck 4.76065 -3.65837 4.74362
head 1.28914 -1.80227 1.74148
rclavicle -3.3402e-014 1.47101e-014
rhumerus -40.2988 -5.39895 -81.6728
rradius 27.6914
rwrist 1.02335
rhand -5.55606 -36.6485
rfingers 7.12502
rthumb 20.2591 -65.612
lclavicle -3.3402e-014 1.47101e-014
lhumerus -31.9784 -6.88335 86.641
lradius 20.1369
lwrist 7.56114
lhand -9.08815 -11.4235
lfingers 7.12502
lthumb 16.8616 17.8644
rfemur 6.08718 1.70122 28.0918
rtibia 4.41749
rfoot -23.3438 -19.7099
rtoes 8.11851
lfemur -10.8861 -1.12522 -4.98818
ltibia 1.38109
lfoot -5.12878 11.3778
ltoes 37.6101
52
root 7.79252 17.8587 -32.3598 1.9468 -11.3504 -4.52829
lowerback -6.80619 1.51436 6.26071
upperback 0.390426 1.50283 0.0560775
thorax 4.39338 0.887181 -3.29944
lowerneck 1.85914 -2.57963 -1.63038
upperneck 4.79755 -3.63958 4.71486
head 1.30522 -1.79206 1.7287
rclavicle 1.88845e-015 8.74653e-015
rhumerus -40.2786 -5.47388 -81.6578
rradius 27.702
rwrist 1.09643
rhand -5.52777 -36.5575
rfingers 7.12502
rthumb 20.2863 -65.518
lclavicle 1.88845e-015 8.74653e-015
lhumerus -31.9575 -7.09906 86.7303
lradius 20.1945
lwrist 7.6171
lhand -9.11913 -11.3788
lfingers 7.12502
lthumb 16.8318 17.9117
rfemur 6.05875 1.72715 28.0553
rtibia 4.48197
rfoot -23.4396 -19.6896
rtoes 8.12093
lfemur -10.9001 -1.06425 -5.03586
ltibia 1.42506
lfoot -5.07269 11.3122
ltoes 37.2698
53
root 7.79347 17.8591 -32.3596 1.9453 -11.3693 -4.49101
lowerback -6.78889 1.46987 6.2403
upperback 0.374045 1.44673 0.0637923
thorax 4.35974 0.857503 -3.2867
lowerneck 1.84024 -2.54206 -1.63555
upperneck 4.84948 -3.58865 4.64614
head 1.32152 -1.76676 1.70755
rclavicle 1.51511e-014 4.96962e-015
rhumerus -40.2661 -5.47667 -81.6293
rradius 27.6952
rwrist 1.17454
rhand -5.50321 -36.4206
rfingers 7.12502
rthumb 20.3099 -65.3787
lclavicle 1.51511e-014 4.96962e-015
lhumerus -31.9941 -7.24225 86.834
lradius 20.2653
lwrist 7.65397
lhand -9.15757 -11.3439
lfingers 7.12502
lthumb 16.7948 17.9498
rfemur 6.01867 1.76183 28.009
rtibia 4.55204
rfoot -23.5683 -19.6491
rtoes 8.16971
lfemur -10.9247 -0.997055 -5.08722
ltibia 1.47551
lfoot -5.03452 11.2465
ltoes 36.9504
54
root 7.79454 17.8595 -32.3593 1.95482 -11.3941 -4.45895
lowerback -6.76646 1.40349 6.20268
upperback 0.344214 1.3624 0.100992
thorax 4.30501 0.812175 -3.23681
lowerneck 1.83152 -2.4822 -1.66338
upperneck 4.89083 -3.50606 4.53837
head 1.33119 -1.7268 1.67822
rclavicle 6.59717e-015 1.23246e-014
rhumerus -40.2487 -5.39597 -81.5912
rradius 27.6776
rwrist 1.24572
rhand -5.48671 -36.2888
rfingers 7.12502
rthumb 20.3257 -65.2452
lclavicle 6.59717e-015 1.23246e-014
lhumerus -32.0914 -7.3176 86.9575
lradius 20.3654
lwrist 7.69329
lhand -9.22712 -11.3433
lfingers 7.12502
lthumb 16.7278 17.956
rfemur 5.96119 1.80373 27.9658
rtibia 4.63433
rfoot -23.7245 -19.5862
rtoes 8.28765
lfemur -10.9647 -0.910781 -5.12979
ltibia 1.53705
lfoot -5.01171 11.1662
ltoes 36.6825
55
root 7.79567 17.86 -32.359 1.9762 -11.4272 -4.4382
lowerback -6.7393 1.32432 6.15764
upperback 0.309557 1.26107 0.163163
thorax 4.24028 0.757597 -3.15855
lowerneck 1.80797 -2.40889 -1.69432
upperneck 4.91028 -3.40302 4.3937
head 1.33501 -1.67719 1.63761
rclavicle 1.00976e-014 -8.94531e-015
rhumerus -40.2144 -5.26547 -81.54
rradius 27.6511
rwrist 1.31445
rhand -5.4848 -36.1725
rfingers 7.12502
rthumb 20.3276 -65.1287
lclavicle 1.00976e-014 -8.94531e-015
lhumerus -32.2421 -7.3722 87.1097
lradius 20.5102
lwrist 7.75483
lhand -9.34972 -11.3479
lfingers 7.12502
lthumb 16.6098 17.9614
rfemur 5.88268 1.851 27.933
rtibia 4.73455
rfoot -23.8936 -19.502
rtoes 8.47253
lfemur -11.0175 -0.804933 -5.15472
ltibia 1.60891
lfoot -5.00721 11.0674
ltoes 36.436
56
root 7.7969 17.8607 -32.3588 2.0083 -11.4631 -4.42116
lowerback -6.70716 1.24806 6.11165
upperback 0.26417 1.1643 0.228863
thorax 4.1623 0.704658 -3.07564
lowerneck 1.79542 -2.33519 -1.69577
upperneck 4.89163 -3.29712 4.22809
head 1.32378 -1.62639 1.58536
rclavicle 4.12789e-015 -2.18663e-015
rhumerus -40.1898 -5.16094 -81.4668
rradius 27.6194
rwrist 1.39092
rhand -5.4816 -36.069
rfingers 7.12502
rthumb 20.3306 -65.0249
lclavicle 4.12789e-015 -2.18663e-015
lhumerus -32.4324 -7.47612 87.2967
lradius 20.6826
lwrist 7.8435
lhand -9.54797 -11.3324
lfingers 7.12502
lthumb 16.4189 17.9927
rfemur 5.78004 1.89458 27.9012
rtibia 4.85988
rfoot -24.0669 -19.3976
rtoes 8.71431
lfemur -11.0853 -0.689084 -5.17252
ltibia 1.69358
lfoot -5.0227 10.9469
ltoes 36.1285
